<svg width="65" height="65" viewBox="0 0 65 65" fill="none" xmlns="http://www.w3.org/2000/svg">
<path d="M25.4854 21.6125V46.0146M17.6854 24.3209V46.0146M9.88543 31.0917V46.0146M2.05835 33.8271V44.6334M34.0438 46.0417H55.2771C56.412 46.0424 57.5328 45.7912 58.5589 45.3064C59.5849 44.8215 60.4906 44.1149 61.2106 43.2377C61.9306 42.3605 62.4469 41.3344 62.7224 40.2335C62.9978 39.1326 63.0256 37.9842 62.8036 36.8713C62.5806 35.7582 62.1131 34.7086 61.435 33.7982C60.7568 32.8879 59.8849 32.1395 58.8823 31.6072C57.8796 31.0749 56.7713 30.772 55.6373 30.7203C54.5032 30.6686 53.3719 30.8695 52.325 31.3084C52.0199 27.9321 50.4596 24.7931 47.9524 22.5115C45.4451 20.2299 42.1733 18.9717 38.7833 18.9855C37.1064 18.9862 35.4442 19.2985 33.8813 19.9063C33.3125 20.123 33.15 20.3667 33.15 20.8V45.175C33.1571 45.4074 33.2543 45.6278 33.4212 45.7896C33.588 45.9514 33.8113 46.0418 34.0438 46.0417Z" stroke="white" stroke-width="3" stroke-linecap="round" stroke-linejoin="round"/>
</svg>
